<svg width="480" height="480" xmlns="http://www.w3.org/2000/svg" xmlns:se="http://svg-edit.googlecode.com" xmlns:xlink="http://www.w3.org/1999/xlink" xmlns:dc="http://purl.org/dc/elements/1.1/" xmlns:cc="http://creativecommons.org/ns#" xmlns:rdf="http://www.w3.org/1999/02/22-rdf-syntax-ns#" xmlns:inkscape="http://www.inkscape.org/namespaces/inkscape" style="">
                                    <title>my vector image</title>
                                    <!-- Created with Vector Paint - http://www.vectorpaint.yaks.com/ https://chrome.google.com/webstore/detail/hnbpdiengicdefcjecjbnjnoifekhgdo -->
                                    <!--rect id="backgroundrect" width="100%" height="100%" x="0" y="0" fill="#FFFFFF" stroke="none"/-->
                                <g style="" class="currentLayer"><title>Layer 1</title><path fill="#222222" stroke="#222222" style="color: rgb(0, 0, 0);" stroke-width="22" stroke-linejoin="round" stroke-dashoffset="" fill-rule="nonzero" marker-start="" marker-mid="" marker-end="" id="svg_3" d="M386.5721549987793,193.37287783622742 L318.0484733581543,212.31561160087585 C311.80598068237305,195.66897463798523 302.3346519470215,181.17486453056335 290.9260368347168,169.69441103935242 L327.0893363952637,105.7628390789032 C330.31818771362305,100.09440493583679 328.3807792663574,92.91916537284851 322.64057540893555,89.6903064250946 C317.0439872741699,86.53317141532898 309.86867904663086,88.47057223320007 306.6398277282715,94.13896822929382 L272.27045822143555,154.84164309501648 C265.1668815612793,150.32127261161804 257.7046318054199,146.73361086845398 249.95527267456055,144.29405093193054 C245.07624435424805,127.36033511161804 230.51037216186523,115.95177340507507 214.00715255737305,114.15789675712585 C214.00715255737305,114.08613467216492 214.00715255737305,114.08613467216492 214.00715255737305,114.01439547538757 C213.28969955444336,111.1443088054657 212.8591423034668,108.6329562664032 212.78745651245117,106.40856051445007 C212.78745651245117,104.18430209159851 212.93088912963867,102.24697756767273 213.36149215698242,100.74015688896179 C213.79192733764648,99.23335909843445 214.29424667358398,98.01355624198914 214.7965202331543,97.00908541679382 C216.51858139038086,93.9954822063446 218.81463241577148,91.98641848564148 221.61301803588867,91.05357241630554 C221.89995956420898,94.35423159599304 223.26330184936523,96.72196841239929 225.77465438842773,98.08535647392273 C227.56843185424805,99.16165041923523 229.72100448608398,99.4486072063446 232.1606101989746,99.0898654460907 C234.67191696166992,98.73110842704773 236.6093406677246,97.29608035087585 237.97263717651367,94.85648226737976 C239.2642478942871,92.63215517997742 239.47935104370117,90.26434206962585 238.76188278198242,87.68125033378601 C237.97263717651367,85.16987490653992 236.39403915405273,83.16080355644226 233.8827018737793,81.72575259208679 C232.08892440795898,80.72122073173523 230.22330856323242,80.21897768974304 228.2142448425293,80.21897768974304 C226.2768211364746,80.21897768974304 224.41137313842773,80.64947390556335 222.54577255249023,81.36698031425476 C220.75197982788086,82.08447909355164 219.1016502380371,83.23255801200867 217.52309799194336,84.73938632011414 C215.9445457458496,86.31796145439148 214.72468185424805,87.96822237968445 213.64843368530273,89.76202273368835 C212.06988143920898,92.56040835380554 211.13706588745117,95.64583468437195 210.7065544128418,99.01817202568054 C210.34771347045898,102.31871676445007 210.27607345581055,105.61936831474304 210.63480758666992,108.84819674491882 C210.77836227416992,110.7137439250946 211.28049850463867,112.36406588554382 211.71116256713867,114.15789675712585 C207.26250839233398,113.87090182304382 202.8138542175293,114.15789675712585 198.29337692260742,115.37767672538757 C192.62490463256836,116.95626711845398 187.6022605895996,119.6110827922821 183.22526168823242,123.05522036552429 C182.6512565612793,121.04613375663757 182.07728958129883,119.03712344169617 181.14450454711914,117.02800631523132 C179.78116989135742,114.08613467216492 178.05910110473633,111.28780245780945 175.9782600402832,108.56116366386414 C173.8974723815918,105.90633273124695 171.4578514099121,103.75372958183289 168.73125839233398,102.17520022392273 C166.93745040893555,101.17069125175476 164.9283790588379,100.45320773124695 162.84755325317383,99.87912631034851 C160.69496536254883,99.37687563896179 158.6859016418457,99.30516695976257 156.74858474731445,99.59207034111023 S153.01740646362305,100.52487826347351 151.29534530639648,101.5294406414032 C149.57329940795898,102.53394961357117 148.28171920776367,103.96903109550476 147.20542526245117,105.69102358818054 C145.84215927124023,108.20237612724304 145.48337173461914,110.78555941581726 146.12915420532227,113.29691195487976 C146.84667587280273,115.95177340507507 148.28171920776367,117.81724429130554 150.43430709838867,119.10881686210632 C152.94565200805664,120.47215914726257 155.3135108947754,120.68732333183289 157.60961532592773,119.75467562675476 C159.90564346313477,118.75005221366882 161.55600357055664,117.38677096366882 162.63226699829102,115.59297060966492 C163.99560165405273,113.08163332939148 163.99560165405273,110.35495638847351 162.5605354309082,107.41318392753601 C165.43062210083008,106.76736330986023 168.37250900268555,107.34136080741882 171.4578514099121,109.06339907646179 C172.39065170288086,109.56574892997742 173.46692276000977,110.4267795085907 174.61492538452148,111.5030505657196 C175.76301956176758,112.57933688163757 176.91103744506836,114.08613467216492 177.98733139038086,116.09522891044617 C179.06366348266602,118.03250002861023 180.06819534301758,120.4004123210907 180.92919540405273,123.19871401786804 C181.07268905639648,123.70105624198914 181.21619033813477,124.34679293632507 181.35972213745117,124.92082095146179 C170.59682083129883,134.67916750907898 165.3588752746582,149.46021914482117 168.4442481994629,164.38479495048523 C161.55600357055664,171.27302432060242 155.81574630737305,179.30929446220398 151.29534530639648,188.35023379325867 L90.66436195373535,153.90891909599304 C84.99588584899902,150.7517535686493 77.8206558227539,152.68910098075867 74.59176731109619,158.35755801200867 C71.43465518951416,164.02606081962585 73.37199020385742,171.20126223564148 79.04043579101562,174.43014407157898 L143.0438117980957,210.6652057170868 C139.09743881225586,226.37913393974304 138.45160293579102,243.67144656181335 141.6087303161621,261.1790759563446 L73.15671825408936,280.1215808391571 C66.84250402450562,281.84368777275085 63.18311047554016,288.3734118938446 64.90515375137329,294.6158130168915 C66.62722110748291,300.8582751750946 73.08497619628906,304.5176684856415 79.39920425415039,302.795622587204 L148.4969825744629,283.63772463798523 C154.45243453979492,296.05081057548523 164.49786758422852,310.4731433391571 176.40880966186523,324.10613894462585 L138.81035995483398,390.4056384563446 C135.65327072143555,396.0740649700165 137.59061813354492,403.24929690361023 143.25907516479492,406.40640139579773 C146.05741500854492,408.05682253837585 149.28625106811523,408.34380984306335 152.1563606262207,407.5545337200165 C155.0982322692871,406.76516604423523 157.68133926391602,404.82778811454773 159.2599220275879,402.0294177532196 L193.34243392944336,341.90081667900085 C225.0570945739746,372.39578127861023 260.1442222595215,390.4056384563446 261.2205619812012,354.3139636516571 C280.0194969177246,384.3782947063446 301.8323631286621,350.3676745891571 314.1738700866699,307.60305666923523 L375.3070182800293,342.18777346611023 C378.17731857299805,343.83807253837585 381.40607833862305,344.1250903606415 384.27619552612305,343.3359363079071 C387.2181205749512,342.54669070243835 389.8012809753418,340.6092517375946 391.3796806335449,337.8107898235321 C394.6086845397949,332.14239382743835 392.5994682312012,324.9671618938446 386.9310111999512,321.73831057548523 L319.9139823913574,283.7810962200165 C323.3581657409668,266.1299731731415 324.8650016784668,248.76597476005554 323.6452445983887,235.1329333782196 L392.88654708862305,216.04673647880554 C399.1289176940918,214.3247058391571 402.8601493835449,207.8669421672821 401.06635665893555,201.62449526786804 C399.34431076049805,195.31019473075867 392.81476974487305,191.65074038505554 386.5721549987793,193.37287783622742 z" class="selected"/></g></svg>
