<svg width="480" height="480" xmlns="http://www.w3.org/2000/svg" xmlns:se="http://svg-edit.googlecode.com" xmlns:xlink="http://www.w3.org/1999/xlink" xmlns:dc="http://purl.org/dc/elements/1.1/" xmlns:cc="http://creativecommons.org/ns#" xmlns:rdf="http://www.w3.org/1999/02/22-rdf-syntax-ns#" xmlns:inkscape="http://www.inkscape.org/namespaces/inkscape">
                                    <title>my vector image</title>
                                    <!-- Created with Vector Paint - http://www.vectorpaint.yaks.com/ https://chrome.google.com/webstore/detail/hnbpdiengicdefcjecjbnjnoifekhgdo -->
                                    <!--rect id="backgroundrect" width="100%" height="100%" x="0" y="0" fill="#FFFFFF" stroke="none"/-->
                                <g style="" class="currentLayer"><title>Layer 1</title><path fill="#222222" fill-opacity="1" stroke="#222222" stroke-opacity="1" style="color: rgb(0, 0, 0);" stroke-width="22" stroke-dasharray="none" stroke-linejoin="round" stroke-linecap="butt" stroke-dashoffset="" fill-rule="nonzero" opacity="1" marker-start="" marker-mid="" marker-end="" id="svg_1" d="M120.6926908493042,386.57698917388916 C103.87321758270264,383.5353021621704 98.07336711883545,362.2865228652954 108.10107707977295,349.5561761856079 C121.4091215133667,329.8678216934204 149.87629985809326,316.5953607559204 172.18066692352295,329.01827335357666 C172.62520122528076,259.68770694732666 172.3686399459839,190.35335636138916 172.43661785125732,121.02113437652588 C228.05127239227295,109.80130100250244 283.7861967086792,99.15852451324463 339.4219083786011,88.03631687164307 C339.3014249801636,165.74051761627197 339.1809415817261,243.4447259902954 339.0604581832886,321.1489496231079 C330.3445463180542,344.6513605117798 302.1813688278198,360.9488458633423 277.6584196090698,353.6611261367798 C263.0586271286011,349.29082584381104 259.5585355758667,330.4457941055298 267.6882658004761,318.8991937637329 C278.8212003707886,301.67525577545166 299.5422697067261,289.8495111465454 320.3736906051636,293.0757074356079 C326.3183317184448,292.4743890762329 335.0723600387573,302.0987787246704 332.5597257614136,291.21111392974854 C332.5597257614136,252.25518131256104 332.5597257614136,213.29927921295166 332.5597257614136,174.34336185455322 C281.5078458786011,184.62040042877197 230.35498332977295,194.40927982330322 179.2794828414917,204.57508182525635 C179.04385662078857,253.23580265045166 179.86130046844482,301.92025089263916 178.68970012664795,350.5623712539673 C174.99719524383545,369.36409854888916 156.54228496551514,382.3941583633423 138.63440227508545,386.19597721099854 C132.70723247528076,386.9022455215454 126.62456035614014,387.51445865631104 120.69266033172607,386.57698917388916 zM253.86673259735107,174.6994104385376 C280.09741497039795,169.53736209869385 306.3404264450073,164.4373254776001 332.5597257614136,159.2180871963501 C335.89648723602295,145.92504215240479 320.9634428024292,154.5579309463501 313.6604642868042,154.88243961334229 C268.8731412887573,163.72356510162354 224.0599546432495,172.43381595611572 179.2794828414917,181.30931949615479 C175.94272136688232,194.60233402252197 190.875750541687,185.96946048736572 198.178729057312,185.64493656158447 C216.739520072937,181.9868860244751 235.30276775360107,178.3413782119751 253.86673259735107,174.6994104385376 zM253.86673259735107,151.4336633682251 C280.09741497039795,146.27161502838135 306.3404264450073,141.1715784072876 332.5597257614136,135.9523401260376 C335.89648723602295,122.65931797027588 320.9634428024292,131.2921838760376 313.6604642868042,131.61669254302979 C268.8731412887573,140.4578332901001 224.0599546432495,149.16806888580322 179.2794828414917,158.04355716705322 C175.94272136688232,171.33658695220947 190.875750541687,162.70371341705322 198.178729057312,162.37920475006104 C216.739520072937,158.72115421295166 235.30276775360107,155.0756311416626 253.86673259735107,151.4336633682251 zM253.86673259735107,128.16790103912354 C280.09741497039795,123.00587558746338 306.3404264450073,117.90582370758057 332.5597257614136,112.68658542633057 C335.89648723602295,99.39356327056885 320.9634428024292,108.0264368057251 313.6604642868042,108.35095310211182 C268.8731412887573,117.1920862197876 224.0599546432495,125.90233707427979 179.2794828414917,134.77781009674072 C175.94272136688232,148.07083988189697 190.875750541687,139.43798160552979 198.178729057312,139.11345767974854 C216.739520072937,135.45542240142822 235.30276775360107,131.8098840713501 253.86673259735107,128.1679162979126 z" class="selected"/></g></svg>
