<svg width="480" height="480" xmlns="http://www.w3.org/2000/svg" xmlns:se="http://svg-edit.googlecode.com" xmlns:xlink="http://www.w3.org/1999/xlink" xmlns:dc="http://purl.org/dc/elements/1.1/" xmlns:cc="http://creativecommons.org/ns#" xmlns:rdf="http://www.w3.org/1999/02/22-rdf-syntax-ns#" xmlns:inkscape="http://www.inkscape.org/namespaces/inkscape" style="">
                                    <title>my vector image</title>
                                    <!-- Created with Vector Paint - http://www.vectorpaint.yaks.com/ https://chrome.google.com/webstore/detail/hnbpdiengicdefcjecjbnjnoifekhgdo -->
                                    <!--rect id="backgroundrect" width="100%" height="100%" x="0" y="0" fill="#FFFFFF" stroke="none"/-->
                                <g style="" class="currentLayer"><title>Layer 1</title><path fill="#222222" fill-opacity="1" stroke="#222222" stroke-opacity="1" style="color: rgb(0, 0, 0);" stroke-width="22" stroke-dasharray="none" stroke-linejoin="round" stroke-linecap="butt" stroke-dashoffset="" fill-rule="nonzero" opacity="1" marker-start="" marker-mid="" marker-end="" id="svg_1" d="M144.33502197265625,118.47143840789795 C151.57493591308594,107.27892875671387 168.05376434326172,105.29147863388062 180.53773498535156,103.77730864286423 C194.45907592773438,105.02828860282898 205.1885223388672,115.87984848022461 213.350341796875,126.37361907958984 C222.84486389160156,134.9508171081543 234.4369659423828,142.22926712036133 239.18887329101562,154.78713989257812 C251.2032470703125,160.73972702026367 265.38702392578125,163.92366790771484 272.7411804199219,176.65957641601562 C283.8566589355469,191.02687072753906 290.2622985839844,208.4169692993164 296.0574493408203,225.2632598876953 C296.9776611328125,237.8217544555664 302.52745056152344,249.2784652709961 304.41790771484375,261.7236862182617 C307.6598815917969,274.0618667602539 310.24427795410156,286.25940704345703 313.737548828125,298.4886703491211 C317.6199188232422,311.2028274536133 323.1354675292969,323.3018569946289 327.00035095214844,336.0338363647461 C334.0592498779297,347.20711517333984 340.4859924316406,358.99588775634766 344.8685607910156,371.43924713134766 C334.382080078125,370.5505142211914 345.8371276855469,387.29654693603516 347.8038024902344,393.89820098876953 C350.6712646484375,407.4860305786133 334.95843505859375,399.7067337036133 332.21070861816406,393.4318618774414 C322.5061492919922,402.61145782470703 302.63812255859375,404.6725540161133 293.84381103515625,392.62442779541016 C284.57989501953125,380.41690826416016 279.4633026123047,364.9274673461914 266.6752624511719,356.0905075073242 C261.6471405029297,351.9054489135742 256.76861572265625,333.6309280395508 254.9691619873047,349.7701950073242 C261.3540496826172,365.8276138305664 236.2266082763672,356.67566680908203 227.3014373779297,359.55933380126953 C211.30479431152344,356.3427047729492 233.3740692138672,347.20043182373047 240.17066955566406,348.28356170654297 C246.5566864013672,341.92948150634766 257.18438720703125,331.2876205444336 241.9295654296875,327.9520950317383 C231.4822540283203,323.79883575439453 218.08888244628906,313.26656341552734 212.21517944335938,328.94396209716797 C204.83965301513672,332.8451461791992 191.62105560302734,351.3525924682617 206.2618865966797,352.71651458740234 C212.1780242919922,364.8252944946289 189.1881866455078,356.0669937133789 182.7687225341797,358.93103790283203 C176.71617126464844,360.8391799926758 161.63114166259766,357.49353790283203 175.68084716796875,354.43236541748047 C187.76880645751953,352.44786834716797 193.53216552734375,337.60066986083984 201.12128448486328,328.60721588134766 C200.86962127685547,317.0686569213867 191.63299560546875,307.91104888916016 184.7096176147461,299.19905853271484 C177.34444427490234,286.91944122314453 167.0678939819336,276.4015884399414 161.9503631591797,262.9618911743164 C158.59347534179688,249.0064468383789 152.2022933959961,236.10363006591797 148.9609832763672,222.11605834960938 C145.30162811279297,208.09844207763672 141.1052360534668,192.29246520996094 148.97991180419922,178.85972595214844 C152.56905364990234,167.0743865966797 154.0635528564453,156.07889938354492 146.53163146972656,146.3783302307129 C136.12441635131836,137.92002868652344 121.33297348022461,141.3123893737793 109.33290481567383,135.7032585144043 C107.88660430908203,126.64402770996094 127.09951400756836,123.18745803833008 135.44985580444336,121.16388893127441 C138.62012481689453,121.05379867553711 141.0466651916504,118.40221881866455 144.33501434326172,118.47140884399414 z" class="selected"/></g></svg>
