<?xml version="1.0" encoding="UTF-8" standalone="no"?>
<!-- Created with Inkscape (http://www.inkscape.org/) -->

<svg
   xmlns:dc="http://purl.org/dc/elements/1.1/"
   xmlns:cc="http://creativecommons.org/ns#"
   xmlns:rdf="http://www.w3.org/1999/02/22-rdf-syntax-ns#"
   xmlns:svg="http://www.w3.org/2000/svg"
   xmlns="http://www.w3.org/2000/svg"
   xmlns:sodipodi="http://sodipodi.sourceforge.net/DTD/sodipodi-0.dtd"
   xmlns:inkscape="http://www.inkscape.org/namespaces/inkscape"
   version="1.1"
   id="svg10"
   width="573"
   height="573"
   viewBox="0 0 573 573"
   sodipodi:docname="spirale.svg"
   inkscape:version="0.92.4 (5da689c313, 2019-01-14)">
  <metadata
     id="metadata16">
    <rdf:RDF>
      <cc:Work
         rdf:about="">
        <dc:format>image/svg+xml</dc:format>
        <dc:type
           rdf:resource="http://purl.org/dc/dcmitype/StillImage" />
        <dc:title></dc:title>
      </cc:Work>
    </rdf:RDF>
  </metadata>
  <defs
     id="defs14" />
  <sodipodi:namedview
     pagecolor="#ffffff"
     bordercolor="#666666"
     borderopacity="1"
     objecttolerance="10"
     gridtolerance="10"
     guidetolerance="10"
     inkscape:pageopacity="0"
     inkscape:pageshadow="2"
     inkscape:window-width="1920"
     inkscape:window-height="1046"
     id="namedview12"
     showgrid="false"
     inkscape:zoom="1.4363002"
     inkscape:cx="286.5"
     inkscape:cy="286.5"
     inkscape:window-x="-11"
     inkscape:window-y="-11"
     inkscape:window-maximized="1"
     inkscape:current-layer="svg10" />
  <path
     style="fill:#222222;stroke-width:0.76770598"
     d="m 236.37192,496.16826 c -15.98512,-1.12919 -30.22313,-4.95058 -42.2279,-11.33367 -9.0746,-4.82508 -11.60164,-7.17005 -11.60164,-10.76576 0,-1.65033 0.54143,-3.42702 1.2767,-4.18943 1.19964,-1.24394 1.79701,-1.19023 9.8988,0.88999 7.74083,1.98754 9.37886,2.15799 16.02566,1.66753 20.61385,-1.52105 39.52167,-6.08043 65.44025,-15.78009 27.73735,-10.38031 56.72899,-26.8107 77.29104,-43.80306 8.82878,-7.29605 23.15784,-21.9001 29.82266,-30.39499 18.4366,-23.49903 31.94867,-51.82051 36.89778,-77.33822 2.88437,-14.87188 3.65948,-25.50507 3.162,-43.37727 -0.80475,-28.91096 -5.90398,-53.35017 -15.60861,-74.80774 -12.66796,-28.00967 -36.84056,-51.30304 -70.56647,-67.99973 -36.0299,-17.83734 -74.39953,-20.450053 -111.87291,-7.61779 -24.05074,8.23584 -43.33371,20.74885 -60.40233,39.19594 -14.59313,15.7717 -24.76262,34.77164 -29.18439,54.526 -4.78073,21.35797 -3.48736,42.49383 4.03228,65.89469 16.90442,52.60592 56.98796,91.33445 97.61708,94.31715 16.78051,1.2319 32.76784,-2.89223 45.75573,-11.80327 25.38024,-17.41349 39.40289,-54.99684 31.8955,-85.48595 -4.26474,-17.32001 -14.03755,-30.6241 -26.58065,-36.18525 -4.68142,-2.07558 -6.6008,-2.46582 -13.47916,-2.7406 -12.70608,-0.50759 -20.50954,2.04548 -27.202,8.89974 -5.70784,5.84582 -6.99681,9.36259 -6.99681,19.08981 0,7.84241 0.12349,8.47651 2.76972,14.22259 1.74715,3.7938 4.46098,7.89933 7.35067,11.12021 5.147,5.73689 5.69827,7.96667 2.73043,11.04407 -2.31015,2.39545 -5.00968,2.45279 -10.74371,0.22821 -11.64014,-4.51592 -21.27604,-22.58586 -21.31885,-39.97863 -0.0472,-19.17368 10.10937,-35.43228 27.50481,-44.02963 7.94939,-3.92882 15.40295,-5.24823 27.13191,-4.80281 8.51851,0.3235 10.78169,0.71069 17.19172,2.94121 15.35321,5.34253 25.96449,14.78189 34.90544,31.05046 9.69179,17.63478 13.48838,42.2062 9.8186,63.54577 -3.90803,22.72496 -14.01262,43.17812 -29.01444,58.72942 -19.49082,20.20474 -42.10349,29.82036 -70.21108,29.85597 -26.15182,0.0331 -50.28991,-9.90323 -73.84951,-30.39991 -32.14518,-27.96609 -55.34675,-75.36141 -58.86121,-120.23948 -1.97312,-25.19581 3.25724,-51.2405 15.19454,-75.66153 24.67751,-50.48466 75.91499,-89.118553 131.0797,-98.836203 16.53308,-2.91242 31.87119,-3.86894 44.47752,-2.77374 20.80734,1.8077 35.45816,5.28579 53.85893,12.78606 34.80668,14.18743 63.74701,37.431393 84.56467,67.919683 30.01415,43.95692 41.27538,119.83853 26.68068,179.78252 -4.07673,16.74414 -11.57763,36.25057 -19.60336,50.97947 -5.27274,9.6766 -16.81548,27.56825 -23.05697,35.73913 -7.01208,9.17969 -27.62226,30.3374 -37.61809,38.61748 -22.61501,18.73318 -46.82445,32.52761 -68.68236,39.13487 -20.19163,6.10357 -53.70786,9.71978 -75.69237,8.16678 z"
     id="path20"
     inkscape:connector-curvature="0" />
</svg>
