<svg width="480" height="480" xmlns="http://www.w3.org/2000/svg" xmlns:se="http://svg-edit.googlecode.com" xmlns:xlink="http://www.w3.org/1999/xlink" xmlns:dc="http://purl.org/dc/elements/1.1/" xmlns:cc="http://creativecommons.org/ns#" xmlns:rdf="http://www.w3.org/1999/02/22-rdf-syntax-ns#" xmlns:inkscape="http://www.inkscape.org/namespaces/inkscape">
                                    <title>my vector image</title>
                                    <!-- Created with Vector Paint - http://www.vectorpaint.yaks.com/ https://chrome.google.com/webstore/detail/hnbpdiengicdefcjecjbnjnoifekhgdo -->
                                    <!--rect id="backgroundrect" width="100%" height="100%" x="0" y="0" fill="#FFFFFF" stroke="none"/-->
                                <g style="" class="currentLayer"><title>Layer 1</title><path fill="none" stroke="#222222" style="color: rgb(0, 0, 0);" stroke-width="22" stroke-linejoin="round" stroke-dashoffset="" fill-rule="nonzero" marker-start="" marker-mid="" marker-end="" id="svg_3" d="M351.828682243824,224.36709594726562 C341.24597960710526,166.54299926757812 290.7274554371834,122.6822509765625 229.87198668718338,122.6822509765625 L229.87198668718338,167.39883422851562 C273.6637652516365,167.46652221679688 309.1269915699959,202.93014526367188 309.231270134449,246.75369262695312 C309.1269915699959,290.5507507324219 273.6637652516365,325.9776916503906 229.87198668718338,326.0821533203125 L229.87198668718338,370.83038330078125 C290.7274554371834,370.7990417480469 341.24597960710526,326.9327392578125 351.828682243824,269.114013671875 L404.252754509449,269.114013671875 L404.252754509449,224.36709594726562 L351.828682243824,224.36709594726562 zM299.40012389421463,246.75369262695312 C299.40012389421463,208.320556640625 268.2682269215584,177.19342041015625 229.87198668718338,177.19342041015625 C199.28762084245682,177.19342041015625 173.3778002858162,196.9552001953125 164.05796080827713,224.36709594726562 L87.59916716814041,224.36709594726562 L87.59916716814041,269.114013671875 L164.05796080827713,269.114013671875 C173.3778002858162,296.55706787109375 199.28762084245682,316.3186340332031 229.87198668718338,316.3186340332031 C268.2682269215584,316.3186340332031 299.40012389421463,285.1551208496094 299.40012389421463,246.75369262695312 z" class="selected"/></g></svg>
