<svg width="480" height="480" xmlns="http://www.w3.org/2000/svg" xmlns:se="http://svg-edit.googlecode.com" xmlns:xlink="http://www.w3.org/1999/xlink" xmlns:dc="http://purl.org/dc/elements/1.1/" xmlns:cc="http://creativecommons.org/ns#" xmlns:rdf="http://www.w3.org/1999/02/22-rdf-syntax-ns#" xmlns:inkscape="http://www.inkscape.org/namespaces/inkscape" style="">
                                    <title>my vector image</title>
                                    <!-- Created with Vector Paint - http://www.vectorpaint.yaks.com/ https://chrome.google.com/webstore/detail/hnbpdiengicdefcjecjbnjnoifekhgdo -->
                                    <!--rect id="backgroundrect" width="100%" height="100%" x="0" y="0" fill="#FFFFFF" stroke="none"/-->
                                <g style="" class="currentLayer"><title>Layer 1</title><path fill="none" stroke="#222222" style="color: rgb(0, 0, 0);" stroke-width="22" stroke-linejoin="round" stroke-dashoffset="" fill-rule="nonzero" marker-start="" marker-mid="" marker-end="" id="svg_2" d="M413.85204285383224,227.9117889404297 L327.3318402171135,227.64599609375 M327.51439636945724,227.9117889404297 A16.115917205810547,16.115917205810547 0 1 1 295.282401740551,227.9117889404297 A16.115917205810547,16.115917205810547 0 1 1 327.51439636945724,227.9117889404297 zM59.06306427717209,264.3547668457031 L138.28646057844162,264.3547668457031 M59.06306427717209,196.10520935058594 L140.70351380109787,195.57342529296875 M114.85571259260178,154.30459594726562 C275.91762512922287,154.30459594726562 293.64086121320724,227.03018188476562 293.64086121320724,227.03018188476562 L293.20766419172287,227.03018188476562 C270.1563336253166,313.0712585449219 114.4222714304924,299.3301696777344 114.4222714304924,299.3301696777344 C188.88034790754318,226.59664916992188 114.85571259260178,154.30459594726562 114.85571259260178,154.30459594726562 zM50.74082535505295,191.81101989746094 L59.01734894514084,191.81101989746094 L59.01734894514084,200.08033752441406 L50.74082535505295,200.08033752441406 L50.74082535505295,191.81101989746094 zM50.74866837263107,260.1138000488281 L59.01734894514084,260.1138000488281 L59.01734894514084,268.38238525390625 L50.74866837263107,268.38238525390625 L50.74866837263107,260.1138000488281 zM413.76076477766037,223.29103088378906 L422.037284553051,223.29103088378906 L422.037284553051,231.55970764160156 L413.76076477766037,231.55970764160156 L413.76076477766037,223.29103088378906 z" class="selected"/></g></svg>
